<svg role="img" viewBox="0 0 24 24" xmlns="http://www.w3.org/2000/svg">
<title>Bilibili</title>
<path d="M21.675 6.658c-.227-.336-.61-.533-1.013-.533h-4.882l1.405-2.152a1.002 1.002 0 1 0-1.693-1.076L14.08 6.125h-4.17L9.507 2.897A1 1 0 0 0 8.11 3.971l1.405 2.154H4.633a1.135 1.135 0 0 0-1.013.534 1.04 1.04 0 0 0-.062 1.074l2.75 8.227a4.693 4.693 0 0 0 3.997 3.139h6.995a4.69 4.69 0 0 0 3.994-3.139l2.752-8.227a1.04 1.04 0 0 0-.06-1.075zM9.593 14.368a1.123 1.123 0 0 1-1.125-1.119v-3.19a1.125 1.125 0 0 1 2.25 0v3.19a1.125 1.125 0 0 1-1.125 1.119zm4.782 0a1.125 1.125 0 0 1-1.125-1.119v-3.19a1.126 1.126 0 1 1 2.251 0v3.19a1.125 1.125 0 0 1-1.126 1.119z"/>
</svg>
